<svg width="141" height="10" viewBox="0 0 141 10" fill="none" xmlns="http://www.w3.org/2000/svg">
<path d="M0.0471546 4.03933C0.373947 4.18549 1.02483 4.07289 1.46906 4.12524C1.60808 4.17604 1.87123 4.18114 2.12322 4.19035C2.29762 4.13931 2.53942 4.10601 2.88003 4.09884C2.90364 4.12264 3.06045 4.1327 3.20757 4.14367C3.36033 4.14785 3.50678 4.14586 3.65155 4.14175C3.74631 4.13974 3.84098 4.13808 3.93493 4.13552C4.12976 4.1331 4.32529 4.14001 4.52017 4.14842C4.92487 4.16602 5.32787 4.18986 5.70672 4.20246C5.53042 4.19946 5.3452 4.19397 5.15619 4.18389C4.7532 4.16239 4.40147 4.18209 4.31983 4.2619C4.32766 4.2728 4.34844 4.28283 4.37899 4.29218C4.28515 4.29143 4.18952 4.28973 4.10357 4.2929C4.06347 4.29438 4.0527 4.31057 4.02861 4.32005C4.08823 4.32274 4.17029 4.33077 4.20305 4.32706C4.27547 4.31887 4.33154 4.30679 4.39091 4.29551C4.41264 4.30152 4.43748 4.30733 4.46845 4.31271C4.86116 4.37158 5.2157 4.30908 5.62265 4.32226C5.35975 4.31902 5.13693 4.32713 5.07982 4.36358C4.98825 4.42205 5.31969 4.41583 5.50507 4.43584C5.68239 4.455 5.95445 4.44548 6.07027 4.48397C6.02182 4.48189 5.97328 4.47978 5.9249 4.4777C5.86227 4.47472 5.79963 4.47179 5.73669 4.4689L5.73676 4.46892C5.65089 4.46459 5.56502 4.46026 5.47914 4.45591C5.65647 4.55685 5.79817 4.5691 6.38185 4.53403C6.70071 4.54389 6.89904 4.58044 7.10484 4.62726C6.67124 4.64048 6.33868 4.68591 5.90084 4.63974C5.88291 4.63784 5.81875 4.64284 5.8147 4.64675C5.80357 4.65729 5.78704 4.67163 5.81876 4.6798C6.22855 4.78555 6.76687 4.85022 7.47596 4.85637C7.58673 4.85732 7.61658 4.84963 7.56769 4.83728C7.3455 4.78992 6.93786 4.81921 6.6703 4.75545C7.00453 4.76447 7.26807 4.77164 7.53161 4.77867C7.92375 4.78913 7.71497 4.71133 7.90853 4.69344C7.95681 4.69905 8.00478 4.7046 8.04897 4.71014C8.13726 4.71969 8.22837 4.72819 8.32224 4.73551C8.65719 4.82468 9.06564 4.89762 9.70816 4.92811C9.95811 4.93998 10.1983 4.9733 10.3505 5.01754C10.4705 5.05216 10.6084 5.05531 10.7602 5.03447C11.0369 5.00566 11.3267 5.02686 11.6233 5.04714C12.0964 5.07946 12.3345 5.08518 12.8659 5.07309C12.9372 5.07781 13.0078 5.08291 13.0769 5.08887C13.1855 5.09266 13.2936 5.09398 13.3993 5.09215C13.4593 5.09014 13.5156 5.08748 13.5698 5.08445C14.0082 5.11145 14.4438 5.1266 14.8697 5.0964C14.8979 5.09439 14.9406 5.09724 14.9766 5.09785C15.0237 5.10512 15.0758 5.11071 15.1333 5.11457C15.1333 5.11458 15.1332 5.11458 15.1331 5.11458C15.2572 5.16142 15.4271 5.2026 15.7434 5.19733C16.1244 5.19098 16.5004 5.20786 16.8775 5.22243C17.1986 5.23483 17.4857 5.23519 17.6909 5.19248C17.8463 5.1601 18.0589 5.16127 18.2995 5.1715C19.2031 5.20989 20.1075 5.24674 21.0113 5.28482C21.1454 5.29047 21.2791 5.29698 21.3991 5.30886C21.392 5.31521 21.3859 5.32172 21.3805 5.32829C21.4459 5.34459 21.5113 5.36089 21.5768 5.37718C21.7301 5.3697 21.8834 5.36219 22.0369 5.35475C22.04 5.35026 22.0418 5.34585 22.0429 5.34147C22.1608 5.33483 22.2779 5.32823 22.3979 5.32146C22.2383 5.28334 21.9339 5.26954 21.8801 5.21714C21.8785 5.21563 21.8786 5.21448 21.8774 5.21306C22.0051 5.22226 22.1334 5.23098 22.2627 5.23915C22.9235 5.35326 23.7866 5.40775 24.6085 5.47434C24.5994 5.48436 24.5903 5.49436 24.5813 5.50437C24.723 5.5109 24.8646 5.5174 25.0063 5.52393C25.1247 5.56319 25.4891 5.54674 25.5453 5.60013C25.5402 5.62393 25.526 5.64795 25.6414 5.66976L25.6338 5.66734C25.6928 5.68486 25.7649 5.68944 25.8522 5.6791C25.9213 5.68011 25.9894 5.68284 26.0566 5.68731C26.0955 5.67834 26.1951 5.67832 26.3111 5.68069C26.3603 5.69087 26.4088 5.70133 26.455 5.71243C26.4765 5.71758 26.4871 5.72396 26.5028 5.72975C25.8253 5.80078 24.9655 5.84308 24.1441 5.84178C23.7719 5.8412 23.3676 5.82362 23.1779 5.89392C23.1779 5.89392 23.1821 5.89517 23.1821 5.89513C23.1868 5.94967 22.7594 5.96195 22.836 6.02732C23.4766 6.06091 24.1095 6.0861 24.7663 6.09773C25.5254 6.11117 26.2913 6.14768 27.0518 6.1786C27.1813 6.18386 27.2986 6.21128 27.4214 6.22849C27.4214 6.2285 27.4168 6.22816 27.4168 6.22816C27.4765 6.24558 27.5448 6.24923 27.623 6.237C27.623 6.237 27.621 6.23697 27.621 6.23699C27.8023 6.2086 28.0353 6.21883 28.2613 6.22857C28.8281 6.25301 29.3945 6.28781 29.9601 6.3009C30.2802 6.30833 30.5466 6.32036 30.8165 6.35442C31.5196 6.44316 32.2814 6.49811 33.1016 6.51617C33.255 6.52201 33.4084 6.52786 33.5618 6.53372C34.1757 6.54959 34.7849 6.5353 35.4021 6.57057C35.62 6.54677 35.8685 6.5525 36.1249 6.56596C36.2021 6.56886 36.2792 6.57175 36.3563 6.57465L36.4659 6.57616L36.573 6.58295L36.5738 6.5836C36.6649 6.57507 36.749 6.57801 36.8249 6.59431C36.8249 6.59431 36.8263 6.59363 36.8263 6.59365C37.1203 6.60519 37.4144 6.61672 37.7085 6.62829C37.8709 6.61073 38.0564 6.61745 38.246 6.62503C38.9961 6.65498 39.7465 6.68429 40.4969 6.71385C40.5733 6.71748 40.6498 6.72111 40.7262 6.72474C40.8781 6.73075 41.0299 6.73678 41.1818 6.74281C41.3621 6.71806 41.5801 6.72061 41.8128 6.73045C42.5994 6.76376 43.3864 6.79635 44.1733 6.82924C44.8985 6.81936 45.9461 6.863 46.7275 6.93567C46.8595 6.93986 46.9918 6.94403 47.124 6.94826C47.2843 6.93006 47.4692 6.93555 47.6597 6.94378C48.0341 6.95997 48.4091 6.97535 48.7839 6.99105C48.8609 6.99407 48.9379 6.99709 49.0149 7.00011C49.1615 7.00549 49.308 7.01086 49.4547 7.01627C49.4547 7.01629 49.4584 7.01773 49.4584 7.01773C49.6429 7.00201 49.8113 7.01429 49.9726 7.039C50.0217 7.0366 50.0721 7.03724 50.1238 7.04098C50.1437 7.03179 50.1638 7.0226 50.1843 7.01345C50.2367 7.00628 50.2909 7.00094 50.346 6.99638C50.3663 7.00924 50.4021 7.02458 50.4528 7.04266C51.501 7.09689 52.5828 7.11319 53.6102 7.19554C53.6993 7.22243 53.85 7.22738 53.9969 7.23367C54.1033 7.23736 54.1933 7.23351 54.2669 7.22209L54.2615 7.22348C54.5612 7.19716 54.9263 7.2584 55.2214 7.22585L55.3153 7.22559L55.4054 7.23301C55.9522 7.20802 56.5224 7.29794 57.0674 7.26416L57.0553 7.26469C57.363 7.24788 57.6614 7.22418 58.0256 7.24871C58.1218 7.25258 58.2165 7.25366 58.3107 7.25219C58.4947 7.24883 58.6858 7.25821 58.8698 7.25564C58.9609 7.25416 59.0485 7.25108 59.1318 7.24576C59.2491 7.23581 59.3508 7.22266 59.438 7.20634L59.4377 7.20763C59.68 7.19952 59.8723 7.17603 60.0779 7.1567C60.4928 7.13728 61.0149 7.19191 61.3711 7.13168L61.3712 7.133C61.9831 7.11749 62.5578 7.17901 63.1515 7.20169C63.1599 7.20217 63.1684 7.20255 63.1767 7.20302C63.1962 7.20711 63.2255 7.21079 63.2636 7.21364C63.3948 7.2235 63.5362 7.22771 63.6732 7.23439C63.6921 7.22583 63.7056 7.21692 63.716 7.20779C63.7205 7.20757 63.725 7.20737 63.7295 7.20715C63.7377 7.20571 63.7455 7.20421 63.7536 7.20277C63.9518 7.20814 64.1503 7.21356 64.3487 7.21897C64.2724 7.18314 64.1255 7.17134 63.9654 7.16404C64.1325 7.14888 64.3162 7.14823 64.504 7.15114C64.6298 7.15588 64.7555 7.16062 64.8813 7.16536C64.886 7.16311 64.8907 7.16086 64.8954 7.15861C64.9836 7.15984 65.0708 7.16022 65.1555 7.15853C65.8616 7.17316 66.5673 7.17689 67.2757 7.19794C68.023 7.16808 68.7876 7.27007 69.5363 7.24544L69.529 7.24599C70.1983 7.23684 70.8474 7.29296 71.509 7.31267C71.6162 7.31781 71.7216 7.32002 71.8285 7.31917C71.9885 7.28309 72.0493 7.33755 72.1678 7.33777C72.2744 7.33992 72.3795 7.33962 72.4823 7.33711C73.1346 7.3321 73.7708 7.35845 74.3917 7.41369C74.6768 7.47079 75.0682 7.45605 75.4027 7.47962C75.5303 7.48697 75.6406 7.48401 75.7335 7.47072L75.7281 7.47208C76.1399 7.44841 76.5798 7.513 76.9925 7.49131C77.0938 7.48853 77.1958 7.48632 77.2982 7.48449C77.5094 7.4918 77.7269 7.4894 77.9131 7.50537C78.7794 7.57969 79.6899 7.59558 80.5731 7.64432L80.5798 7.64394C80.6301 7.64032 80.6565 7.63454 80.6614 7.62681C80.8741 7.63708 81.1012 7.6381 81.2792 7.67049C81.2792 7.67049 81.2946 7.66806 81.2944 7.66811C81.5838 7.67102 81.8735 7.67391 82.1631 7.67678C82.1697 7.67608 82.1768 7.67544 82.1835 7.67476C82.1851 7.67528 82.1872 7.67576 82.1888 7.67627C82.1854 7.67613 82.1821 7.676 82.1788 7.67586C82.1927 7.67947 82.2074 7.68276 82.2222 7.68594C82.2551 7.6942 82.2953 7.70166 82.3442 7.70818C82.3515 7.70874 82.359 7.70921 82.3663 7.70975C82.6106 7.74066 82.9184 7.74116 83.1887 7.75887C83.4681 7.77718 83.7884 7.77396 83.9983 7.82561C84.209 7.83522 84.4198 7.84482 84.6305 7.85441C84.6336 7.85432 84.6352 7.85407 84.6381 7.85398C84.6429 7.85459 84.6479 7.8551 84.6527 7.85572C84.7328 7.85965 84.8133 7.86277 84.8939 7.86548C84.8992 7.86622 84.9031 7.86695 84.9092 7.86769C84.9092 7.86769 84.9106 7.86684 84.9105 7.86686C85.8762 7.9084 86.8419 7.94995 87.8076 7.9915C88.4122 8.0227 89.0149 8.05609 89.6167 8.09043C90.3324 8.10886 90.9633 8.19851 91.6854 8.21282C91.7976 8.22207 91.9125 8.22917 92.0307 8.23403C92.6028 8.259 93.175 8.28327 93.7484 8.30794C93.8577 8.31269 93.9658 8.31728 94.0755 8.32178C94.3371 8.31779 94.5791 8.34095 94.8277 8.35478C95.1203 8.36641 95.4113 8.38009 95.7039 8.39148C95.9875 8.39028 96.2705 8.38971 96.539 8.42251C96.6301 8.43003 96.7236 8.43592 96.8194 8.43981C96.9639 8.44557 97.1102 8.45246 97.2205 8.43303L97.2128 8.43466C98.3335 8.44335 99.4224 8.52304 100.533 8.55983C100.648 8.5647 100.76 8.56965 100.874 8.57477C101.176 8.58386 101.481 8.57021 101.773 8.6051C101.863 8.61393 101.956 8.6207 102.054 8.62504C102.197 8.63141 102.339 8.63763 102.482 8.64304C102.581 8.64593 102.667 8.64238 102.738 8.63234L102.733 8.63314C103.508 8.61411 104.279 8.71758 105.054 8.69291C105.429 8.66507 105.854 8.73635 106.228 8.70528L106.312 8.70341L106.396 8.70916C106.796 8.68703 107.232 8.75537 107.628 8.7249L107.714 8.72375L107.798 8.72983C107.872 8.73035 107.91 8.72629 107.919 8.71868C107.92 8.71874 107.922 8.7188 107.923 8.71888C108.258 8.73317 108.594 8.74805 108.93 8.76169C109.048 8.76692 109.152 8.76399 109.242 8.75286L109.237 8.75369C109.534 8.73382 109.836 8.76762 110.136 8.7737C110.243 8.77748 110.334 8.77376 110.409 8.76248L110.403 8.7636C110.621 8.74137 110.912 8.78349 111.126 8.75692L111.125 8.75704C111.493 8.73386 111.86 8.77789 112.227 8.7843C112.339 8.78869 112.436 8.78535 112.518 8.77422L112.512 8.77513C112.731 8.75199 113.024 8.79566 113.239 8.76859L113.323 8.76656L113.408 8.77251C113.645 8.7554 113.941 8.79432 114.168 8.76767C114.539 8.73821 114.968 8.81249 115.336 8.77759C115.65 8.75809 115.965 8.79309 116.28 8.80029C116.437 8.80654 116.599 8.81622 116.731 8.79804C117.188 8.77078 117.681 8.85178 118.136 8.81937L118.133 8.81966C118.652 8.80143 119.157 8.855 119.67 8.86631C119.792 8.87297 119.898 8.86995 119.987 8.85717L119.981 8.85836C120.481 8.84221 120.967 8.89191 121.461 8.90401C121.571 8.90891 121.68 8.91236 121.791 8.91429C122.079 8.88347 122.403 8.9048 122.722 8.91807C122.834 8.92225 122.93 8.91888 123.008 8.90668L123.001 8.90802C123.22 8.88614 123.515 8.92954 123.725 8.90017L123.719 8.90052C123.87 8.88617 124.061 8.89911 124.221 8.89109C124.364 8.87684 124.549 8.87821 124.687 8.86231L124.682 8.86277C124.836 8.84913 125.007 8.85837 125.174 8.86436C125.262 8.86509 125.336 8.86097 125.395 8.85125L125.389 8.85242C125.604 8.82917 125.906 8.87479 126.109 8.84254C126.274 8.83047 126.476 8.84404 126.642 8.83283C126.829 8.80809 127.116 8.84211 127.299 8.81518C127.443 8.80274 127.642 8.81627 127.771 8.797C127.873 8.7914 127.957 8.78086 128.036 8.7694C128.127 8.76145 128.213 8.75229 128.284 8.73974C128.383 8.73262 128.472 8.7232 128.534 8.70798C128.698 8.69712 128.682 8.65924 128.823 8.64507L128.821 8.64541C128.911 8.63591 129.007 8.62772 129.066 8.61174L129.044 8.6126C129.125 8.6083 129.18 8.59925 129.208 8.58539C129.233 8.5572 129.243 8.52771 129.372 8.50839L129.365 8.50997C129.607 8.48437 129.488 8.42432 129.665 8.3926C129.649 8.38216 129.661 8.37361 129.702 8.36692C130.017 8.32083 129.745 8.22871 130.055 8.18225L130.052 8.18293C130.204 8.16767 130.193 8.13129 130.323 8.11316C130.47 8.09906 130.684 8.11534 130.811 8.09216L130.797 8.09408C130.901 8.08922 130.982 8.07778 131.069 8.06834L131.072 8.06807C131.154 8.0584 131.24 8.0493 131.318 8.03871C131.409 8.02957 131.503 8.02108 131.565 8.00594C131.725 7.99421 131.711 7.95684 131.85 7.94206L131.848 7.94247C131.938 7.93401 132.023 7.92441 132.102 7.91327C132.193 7.90499 132.28 7.89566 132.354 7.88351C132.507 7.87068 132.485 7.83233 132.642 7.82003L132.646 7.81904C132.722 7.80766 132.817 7.79995 132.877 7.78544C133.176 7.75473 132.944 7.67582 133.208 7.64199L133.2 7.64255C133.336 7.63045 133.45 7.61423 133.523 7.59063C133.734 7.51704 134.028 7.45704 134.476 7.41251C134.717 7.59088 135.447 7.537 136.045 7.5482C136.147 7.55266 136.247 7.55457 136.348 7.55377C136.538 7.54819 136.694 7.5331 136.824 7.51079C136.88 7.49919 136.924 7.48646 136.957 7.47221C136.979 7.44971 137.016 7.42879 137.118 7.41449L137.113 7.41546C137.321 7.39639 137.219 7.34001 137.442 7.32276C137.58 7.30193 137.778 7.30459 137.946 7.29574C138.188 7.27485 138.417 7.25072 138.627 7.22183C138.737 7.20816 138.823 7.1904 138.901 7.17128L138.893 7.17397C139.212 7.14484 138.96 7.06308 139.243 7.03075L139.241 7.03121C139.468 7.00833 139.324 6.94773 139.54 6.92369C139.743 6.88002 139.81 6.83103 139.611 6.77163L139.627 6.77543C139.588 6.75545 139.509 6.73929 139.43 6.72319L139.433 6.72439C139.319 6.6971 139.384 6.66196 139.238 6.63601L139.244 6.63978C139.125 6.56881 138.612 6.71522 138.591 6.59046C137.791 6.46116 137.591 6.67921 136.929 6.63325C137.049 6.57365 137.395 6.53441 137.381 6.4568C137.364 6.3673 137.134 6.37061 136.807 6.39507C136.769 6.39579 136.732 6.39653 136.695 6.39726C136.317 6.37343 135.94 6.36879 135.563 6.36593C135.413 6.34414 135.288 6.31053 135.197 6.25946C135.168 6.24359 134.915 6.25019 134.781 6.26111C134.601 6.28237 134.483 6.3115 134.427 6.34951C134.417 6.35801 134.431 6.36271 134.447 6.36536C134.439 6.36509 134.434 6.3648 134.423 6.36454C134.343 6.36251 134.314 6.34432 134.273 6.33287C134.2 6.31823 134.117 6.30717 134.031 6.29794C134.2 6.2822 134.364 6.26588 134.417 6.23403C134.606 6.26229 134.804 6.26562 135.013 6.24483C135.099 6.23589 135.185 6.22694 135.271 6.218C135.691 6.2367 135.952 6.19459 136.232 6.16127C136.44 6.13639 136.41 6.0956 136.153 6.06993C135.989 6.0535 135.798 6.04647 135.62 6.03523L135.62 6.03523L135.62 6.03516C135.644 6.01118 135.669 5.98721 135.693 5.96318C135.693 5.96317 135.693 5.96317 135.693 5.96316C136.608 5.99524 136.608 5.99524 137.109 5.94342C136.808 5.93049 136.549 5.92064 136.292 5.90779C136.167 5.90151 136.109 5.88509 136.219 5.87043C136.267 5.86402 136.36 5.86722 136.433 5.86607C136.433 5.86607 136.433 5.86607 136.433 5.86608C136.621 5.87831 136.79 5.87975 136.906 5.8516L136.906 5.8516C136.906 5.8516 136.906 5.8516 136.906 5.8516C136.906 5.8516 136.908 5.85106 136.908 5.85108L136.908 5.85106C137.158 5.84166 137.408 5.83311 137.682 5.84875C137.993 5.86657 138.278 5.85269 138.57 5.84701C138.637 5.84648 138.704 5.84794 138.771 5.85135C138.988 5.82693 139.287 5.87121 139.499 5.84307L139.494 5.84332C139.654 5.82202 139.949 5.85576 140.058 5.81407C139.731 5.6679 139.08 5.78051 138.636 5.72816C138.497 5.67735 138.234 5.67226 137.982 5.66305C137.808 5.71409 137.566 5.74739 137.225 5.75456C137.202 5.73076 137.045 5.7207 136.898 5.70973C136.745 5.70555 136.598 5.70753 136.454 5.71164C136.359 5.71366 136.264 5.71531 136.17 5.71788C135.975 5.7203 135.78 5.71338 135.585 5.70497C135.18 5.68737 134.777 5.66354 134.399 5.65094C134.575 5.65394 134.76 5.65942 134.949 5.66951C135.352 5.69101 135.704 5.67131 135.785 5.5915C135.778 5.5806 135.757 5.57057 135.726 5.56121C135.82 5.56197 135.916 5.56367 136.002 5.5605C136.042 5.55902 136.053 5.54283 136.077 5.53335C136.017 5.53066 135.935 5.52263 135.902 5.52633C135.83 5.53452 135.774 5.5466 135.714 5.55789C135.693 5.55188 135.668 5.54607 135.637 5.54068C135.244 5.48182 134.89 5.54431 134.483 5.53115C134.745 5.53439 134.968 5.52628 135.025 5.48983C135.117 5.43137 134.785 5.43758 134.6 5.41757C134.423 5.39841 134.151 5.40793 134.035 5.36944C134.083 5.37153 134.132 5.37363 134.18 5.37571C134.243 5.37869 134.306 5.38162 134.368 5.38451L134.368 5.38449C134.454 5.38882 134.54 5.39315 134.626 5.39748C134.449 5.29654 134.307 5.28429 133.723 5.31937C133.404 5.3095 133.206 5.27295 133 5.22613C133.434 5.21291 133.766 5.16749 134.204 5.21366C134.222 5.21555 134.286 5.21055 134.29 5.20664C134.302 5.1961 134.318 5.18177 134.286 5.17359C133.877 5.06784 133.338 5.00318 132.629 4.99703C132.518 4.99607 132.489 5.00377 132.537 5.01612C132.76 5.06348 133.167 5.03418 133.435 5.09795C133.101 5.08893 132.837 5.08175 132.574 5.07472C132.181 5.06426 132.39 5.14207 132.197 5.15996C132.148 5.15433 132.1 5.1488 132.056 5.14326C131.968 5.1337 131.877 5.1252 131.783 5.11788C131.448 5.02873 131.04 4.95578 130.397 4.92528C130.147 4.91342 129.907 4.8801 129.755 4.83586C129.635 4.80123 129.497 4.79808 129.345 4.81892C129.068 4.84774 128.778 4.82653 128.482 4.80625C128.009 4.77393 127.771 4.76822 127.239 4.78028C127.168 4.77556 127.097 4.77046 127.028 4.76451C126.919 4.76072 126.811 4.7594 126.706 4.76123C126.646 4.76323 126.589 4.76589 126.535 4.76893C126.097 4.74192 125.661 4.72677 125.235 4.75698C125.207 4.75898 125.164 4.75613 125.128 4.75553C125.081 4.74825 125.029 4.74267 124.972 4.73881C124.972 4.73879 124.972 4.7388 124.972 4.73878C124.848 4.69194 124.678 4.65076 124.362 4.65603C123.981 4.66238 123.605 4.64551 123.228 4.63093C122.906 4.61853 122.619 4.61817 122.414 4.66089C122.259 4.69327 122.046 4.69211 121.806 4.68188C120.902 4.64349 119.998 4.60664 119.094 4.56856C118.96 4.56291 118.826 4.5564 118.706 4.54451C118.713 4.53817 118.719 4.53165 118.725 4.52509C118.659 4.50878 118.594 4.49249 118.528 4.4762C118.375 4.48368 118.222 4.49118 118.068 4.49863C118.065 4.50311 118.063 4.50753 118.062 4.51191C117.944 4.51855 117.827 4.52514 117.707 4.53192C117.867 4.57004 118.171 4.58384 118.225 4.63624C118.227 4.63775 118.227 4.6389 118.228 4.64032C118.1 4.63111 117.972 4.62239 117.842 4.61423C117.182 4.50012 116.319 4.44562 115.497 4.37904C115.506 4.36902 115.515 4.35901 115.524 4.349C115.382 4.34248 115.24 4.33597 115.099 4.32945C114.98 4.29018 114.616 4.30662 114.56 4.25324C114.565 4.22944 114.579 4.20543 114.464 4.18361L114.471 4.18603C114.412 4.16852 114.34 4.16393 114.253 4.17427C114.184 4.17327 114.116 4.17053 114.048 4.16607C114.009 4.17503 113.91 4.17506 113.794 4.17269C113.745 4.1625 113.696 4.15204 113.65 4.14094C113.628 4.13579 113.618 4.12941 113.602 4.12362C114.28 4.05259 115.139 4.01029 115.961 4.01159C116.333 4.01217 116.737 4.02975 116.927 3.95945C116.927 3.95945 116.923 3.9582 116.923 3.95824C116.918 3.9037 117.346 3.89142 117.269 3.82605C116.628 3.79246 115.995 3.76729 115.339 3.75566C114.58 3.74221 113.814 3.7057 113.053 3.67479C112.924 3.66953 112.806 3.64211 112.684 3.6249C112.684 3.62489 112.688 3.62523 112.688 3.62523C112.629 3.60781 112.56 3.60417 112.482 3.61639C112.482 3.61639 112.484 3.61644 112.484 3.6164C112.303 3.64479 112.07 3.63456 111.844 3.62482C111.277 3.60039 110.711 3.56558 110.145 3.55249C109.825 3.54506 109.558 3.53303 109.289 3.49897C108.586 3.41023 107.824 3.35528 107.003 3.33722C106.85 3.33138 106.697 3.32553 106.543 3.31967C105.929 3.3038 105.32 3.31809 104.703 3.28283C104.485 3.30664 104.237 3.30089 103.98 3.28743C103.903 3.28453 103.826 3.28164 103.749 3.27875L103.639 3.27723L103.532 3.27044L103.531 3.2698C103.44 3.27832 103.356 3.27538 103.28 3.25908C103.28 3.25908 103.279 3.25976 103.279 3.25975C102.985 3.2482 102.691 3.23667 102.397 3.22511C102.234 3.24266 102.049 3.23594 101.859 3.22837C101.109 3.19841 100.359 3.1691 99.6082 3.13955C99.5318 3.13592 99.4553 3.13229 99.379 3.12866C99.2271 3.12265 99.0752 3.11662 98.9233 3.11059C98.743 3.13533 98.5251 3.13279 98.2924 3.12294C97.5058 3.08964 96.7188 3.05704 95.9318 3.02415C95.2067 3.03403 94.159 2.9904 93.3777 2.91773C93.2456 2.91352 93.1134 2.90936 92.9811 2.90513C92.8209 2.92333 92.636 2.91784 92.4455 2.90962C92.0711 2.89343 91.6961 2.87805 91.3214 2.86235C91.2443 2.85933 91.1673 2.85631 91.0903 2.85328C90.9438 2.84791 90.7972 2.84254 90.6506 2.83713C90.6505 2.83711 90.6468 2.83567 90.6468 2.83567C90.4623 2.85138 90.2939 2.83911 90.1327 2.8144C90.0835 2.8168 90.0331 2.81615 89.9814 2.81242C89.9616 2.82161 89.9415 2.8308 89.921 2.83995C89.8686 2.84712 89.8143 2.85246 89.7592 2.85702C89.7389 2.84416 89.7032 2.82882 89.6525 2.81074C88.6042 2.7565 87.5224 2.74021 86.4949 2.65785C86.406 2.63097 86.2552 2.62601 86.1082 2.61972C86.0018 2.61603 85.9118 2.61989 85.8383 2.6313L85.8437 2.62992C85.5439 2.65624 85.1789 2.59499 84.8837 2.62754L84.7898 2.6278L84.6997 2.62039C84.1529 2.64538 83.5827 2.55545 83.0377 2.58923L83.0498 2.5887C82.7421 2.60551 82.4437 2.62921 82.0795 2.60468C81.9833 2.60081 81.8885 2.59973 81.7944 2.60121C81.6104 2.60458 81.4193 2.59518 81.2353 2.59775C81.1442 2.59924 81.0566 2.60231 80.9733 2.60763C80.856 2.61758 80.7543 2.63074 80.6671 2.64705L80.6674 2.64576C80.425 2.65387 80.2328 2.67736 80.0273 2.6967C79.6124 2.71612 79.0902 2.66149 78.7341 2.72171L78.734 2.72039C78.122 2.73591 77.5474 2.67438 76.9536 2.65171C76.9452 2.65122 76.9367 2.65084 76.9283 2.65038C76.9089 2.64628 76.8796 2.6426 76.8415 2.63975C76.7102 2.62989 76.5688 2.62568 76.4319 2.619C76.413 2.62756 76.3995 2.63648 76.3891 2.6456C76.3846 2.64583 76.3801 2.64602 76.3756 2.64624C76.3674 2.64769 76.3596 2.64918 76.3515 2.65063C76.1532 2.64526 75.9548 2.63983 75.7564 2.63443C75.8327 2.67025 75.9796 2.68205 76.1397 2.68935C75.9726 2.70451 75.7889 2.70516 75.6011 2.70225C75.4753 2.69751 75.3496 2.69278 75.2238 2.68804C75.2191 2.69028 75.2144 2.69254 75.2097 2.69478C75.1215 2.69356 75.0343 2.69317 74.9496 2.69486C74.2435 2.68023 73.5378 2.67651 72.8294 2.65545C72.0821 2.68531 71.3175 2.58332 70.5687 2.60795L70.5761 2.6074C69.9068 2.61655 69.2577 2.56043 68.5961 2.54072C68.4889 2.53558 68.3835 2.53337 68.2766 2.53423C68.1166 2.5703 68.0558 2.51585 67.9374 2.51563C67.8308 2.51348 67.7257 2.51378 67.6229 2.51629C66.9706 2.5213 66.3344 2.49494 65.7135 2.4397C65.4283 2.38261 65.037 2.39735 64.7025 2.37377C64.5749 2.36643 64.4646 2.36939 64.3717 2.38266L64.377 2.38129C63.9652 2.40497 63.5253 2.34038 63.1127 2.36207C63.0113 2.36485 62.9093 2.36706 62.8069 2.36889C62.5958 2.36158 62.3783 2.36398 62.192 2.34801C61.3257 2.27368 60.4152 2.25779 59.532 2.20905L59.5253 2.20944C59.475 2.21306 59.4486 2.21883 59.4437 2.22657C59.231 2.2163 59.0039 2.21526 58.826 2.18289C58.826 2.18289 58.8106 2.18532 58.8107 2.18527C58.5214 2.18236 58.2317 2.17948 57.9421 2.17661C57.9354 2.17731 57.9284 2.17794 57.9216 2.17864C57.9201 2.17811 57.9181 2.17764 57.9164 2.17711C57.9197 2.17725 57.923 2.17738 57.9264 2.17751C57.9124 2.17391 57.8979 2.17062 57.883 2.16744C57.8501 2.15918 57.8099 2.15172 57.761 2.14519C57.7536 2.14464 57.7462 2.14416 57.7388 2.14363C57.4945 2.11272 57.1867 2.11222 56.9165 2.09451C56.637 2.0762 56.3168 2.07942 56.1068 2.02777C55.8961 2.01816 55.6854 2.00856 55.4746 1.99897C55.4715 1.99906 55.47 1.99931 55.4671 1.9994C55.4622 1.99879 55.4573 1.99828 55.4524 1.99767C55.3724 1.99375 55.2919 1.99062 55.2113 1.98792C55.2059 1.98718 55.202 1.98645 55.196 1.98571C55.196 1.98571 55.1945 1.98655 55.1946 1.98654C54.229 1.94499 53.2632 1.90344 52.2975 1.86189C51.693 1.8307 51.0903 1.7973 50.4885 1.76296C49.7727 1.74454 49.1419 1.65489 48.4198 1.64057C48.3075 1.63133 48.1926 1.62422 48.0745 1.61937C47.5023 1.59439 46.9301 1.57012 46.3568 1.54545C46.2474 1.54071 46.1394 1.53611 46.0297 1.53162C45.7681 1.5356 45.526 1.51245 45.2774 1.49861C44.9849 1.48698 44.6938 1.47331 44.4013 1.46192C44.1176 1.46311 43.8346 1.4637 43.5662 1.43089C43.4751 1.42337 43.3815 1.41747 43.2857 1.41358C43.1413 1.40783 42.9949 1.40093 42.8847 1.42036L42.8924 1.41874C41.7717 1.41004 40.6827 1.33035 39.5722 1.29357C39.4576 1.28869 39.3455 1.28375 39.2308 1.27862C38.9296 1.26954 38.6238 1.28319 38.3326 1.24829C38.2422 1.23947 38.1492 1.2327 38.0515 1.22836C37.9085 1.22199 37.7659 1.21577 37.6229 1.21037C37.5237 1.20748 37.4383 1.21103 37.3667 1.22107L37.3718 1.22027C36.597 1.2393 35.8264 1.13583 35.0514 1.1605C34.6757 1.18834 34.2516 1.11706 33.8776 1.14813L33.7935 1.15001L33.7089 1.14427C33.3094 1.1664 32.8735 1.09804 32.4774 1.12851L32.3916 1.12967L32.3069 1.12358C32.2328 1.12306 32.1952 1.12712 32.1865 1.13473C32.185 1.13467 32.1835 1.13461 32.1819 1.13454C31.8467 1.12026 31.5113 1.10538 31.1755 1.09174C31.0573 1.08651 30.9531 1.08943 30.8629 1.10057L30.8685 1.09974C30.571 1.11961 30.2689 1.0858 29.9693 1.07973C29.8623 1.07594 29.7712 1.07967 29.6961 1.09095L29.7024 1.08983C29.4839 1.11206 29.1929 1.06993 28.9792 1.09651L28.9797 1.09639C28.6126 1.11957 28.2455 1.07554 27.8785 1.06913C27.7665 1.06474 27.6693 1.06808 27.5869 1.07921L27.5933 1.0783C27.3744 1.10144 27.0809 1.05776 26.8665 1.08484L26.7818 1.08686L26.6968 1.08092C26.46 1.09803 26.1644 1.05911 25.9375 1.08576C25.5666 1.11522 25.1374 1.04093 24.7696 1.07584C24.4556 1.09534 24.1398 1.06034 23.8251 1.05314C23.6677 1.04689 23.5065 1.0372 23.3744 1.05539C22.917 1.08264 22.4244 1.00165 21.9688 1.03406L21.9721 1.03377C21.4533 1.05199 20.9484 0.99843 20.4354 0.98712C20.3128 0.980454 20.207 0.98348 20.1182 0.996258L20.1239 0.995064C19.624 1.01122 19.1379 0.961521 18.6437 0.949415C18.5342 0.944516 18.4248 0.941064 18.3146 0.939138C18.026 0.969959 17.7018 0.948625 17.3832 0.935359C17.2713 0.931175 17.1752 0.934529 17.0975 0.946755L17.1039 0.945406C16.8855 0.967309 16.5902 0.923886 16.3804 0.953263L16.3867 0.952912C16.235 0.967257 16.0444 0.954323 15.8838 0.962342C15.7413 0.976609 15.556 0.975221 15.4181 0.991123L15.4229 0.99066C15.2691 1.0043 15.0987 0.995059 14.9309 0.989073C14.8438 0.98834 14.7694 0.992458 14.7101 1.00218L14.7166 1.00101C14.5019 1.02427 14.1996 0.978643 13.9964 1.0109C13.8314 1.02297 13.6297 1.0094 13.4636 1.0206C13.2762 1.04535 12.9896 1.01132 12.806 1.03825C12.6626 1.0507 12.4638 1.03717 12.3348 1.05644C12.232 1.06204 12.1487 1.07258 12.069 1.08404C11.978 1.09199 11.8923 1.10114 11.8215 1.11369C11.7222 1.12082 11.6333 1.13023 11.5709 1.14546C11.4074 1.15632 11.4237 1.1942 11.2823 1.20836L11.2841 1.20802C11.1942 1.21752 11.0981 1.22572 11.0397 1.24169L11.0617 1.24083C10.9804 1.24513 10.9256 1.25419 10.8975 1.26806C10.8722 1.29625 10.8628 1.32574 10.733 1.34506L10.7404 1.34348C10.4985 1.36908 10.6177 1.42913 10.4401 1.46085C10.4565 1.47129 10.4441 1.47985 10.4032 1.48653C10.0882 1.53262 10.3606 1.62474 10.0503 1.67121L10.0538 1.67052C9.90132 1.68578 9.91223 1.72216 9.78206 1.74029C9.63517 1.75441 9.42186 1.73811 9.29487 1.76129L9.30853 1.75937C9.20401 1.76423 9.12385 1.77568 9.03628 1.78512L9.0337 1.78538C8.95103 1.79505 8.86588 1.80414 8.78726 1.81474C8.69644 1.82389 8.60239 1.83237 8.54004 1.84752C8.37991 1.85924 8.39464 1.89661 8.25529 1.9114L8.25749 1.91099C8.16722 1.91944 8.08191 1.92905 8.00312 1.94019C7.9121 1.94847 7.82566 1.95779 7.75153 1.96995C7.59862 1.98278 7.62058 2.02112 7.46392 2.03343L7.4592 2.03442C7.38335 2.0458 7.28865 2.0535 7.22881 2.06802C6.9298 2.09872 7.16153 2.17764 6.89696 2.21146L6.90507 2.2109C6.76934 2.223 6.65586 2.23922 6.58267 2.26282C6.37153 2.3364 6.07768 2.39641 5.62944 2.44095C5.38798 2.26257 4.65824 2.31645 4.06017 2.30525C3.95866 2.30079 3.85835 2.2989 3.75774 2.29968C3.56734 2.30526 3.41173 2.32035 3.28121 2.34266C3.22561 2.35426 3.18131 2.36699 3.14853 2.38125C3.12593 2.40374 3.08939 2.42466 2.98769 2.43896L2.99233 2.43799C2.78467 2.45706 2.88656 2.51344 2.66377 2.53069C2.52513 2.55152 2.32758 2.54886 2.15908 2.55771C1.91706 2.57859 1.68801 2.60273 1.47854 2.63162C1.36793 2.64529 1.28184 2.66305 1.20395 2.68217L1.21181 2.67948C0.893657 2.70861 1.1457 2.79036 0.862368 2.8227L0.864649 2.82224C0.637149 2.84512 0.781465 2.90572 0.565342 2.92975C0.362149 2.97343 0.294753 3.02241 0.494654 3.08181L0.478143 3.07802C0.51774 3.098 0.596451 3.11416 0.675692 3.13026L0.672403 3.12906C0.786748 3.15635 0.721211 3.19149 0.866886 3.21743L0.861635 3.21367C0.979864 3.28462 1.49348 3.13823 1.51393 3.26299C2.31404 3.39229 2.51409 3.17424 3.17647 3.2202C3.05652 3.27981 2.71048 3.31906 2.72481 3.39665C2.74136 3.48615 2.97113 3.48284 3.29859 3.45838C3.33579 3.45766 3.37308 3.45692 3.41021 3.45619C3.78811 3.48002 4.1654 3.48464 4.54251 3.48751C4.69193 3.50931 4.81758 3.54292 4.9086 3.59399C4.93683 3.60985 5.18999 3.60326 5.32462 3.59234C5.50438 3.57108 5.62279 3.54195 5.67821 3.50394C5.68822 3.49544 5.67483 3.49074 5.65851 3.48808C5.66599 3.48836 5.67149 3.48865 5.68192 3.48891C5.76234 3.49092 5.79172 3.50913 5.83225 3.52058C5.90557 3.53522 5.98776 3.5463 6.07462 3.55551C5.90545 3.57125 5.74118 3.58756 5.68784 3.61942C5.49961 3.59116 5.3011 3.58782 5.09256 3.60861C5.00651 3.61756 4.92045 3.6265 4.8344 3.63544C4.41424 3.61676 4.15306 3.65885 3.87355 3.69219C3.66488 3.71707 3.6953 3.75787 3.95216 3.78353C4.11664 3.79996 4.3068 3.80699 4.48542 3.81823L4.48549 3.81823C4.48549 3.81823 4.48549 3.81823 4.48549 3.81825L4.48511 3.81832C4.4608 3.84229 4.43657 3.86628 4.41248 3.89029C4.41233 3.89031 4.41225 3.8903 4.41218 3.89032C3.49748 3.85824 3.49748 3.85824 2.99635 3.91006C3.29727 3.92298 3.55635 3.93284 3.81269 3.94569C3.9381 3.95196 3.99595 3.96839 3.88637 3.98305C3.83849 3.98945 3.74495 3.98625 3.67213 3.98741C3.67205 3.9874 3.67205 3.9874 3.67205 3.9874C3.67205 3.9874 3.67205 3.9874 3.67213 3.98741C3.48379 3.97518 3.315 3.97374 3.19949 4.00189L3.19957 4.00189L3.19949 4.00189C3.19949 4.00189 3.19668 4.00243 3.19668 4.00241L3.19668 4.00243C2.94684 4.01183 2.69688 4.02038 2.42332 4.00474C2.11159 3.98693 1.827 4.00081 1.53556 4.00649C1.46851 4.00701 1.40121 4.00555 1.33375 4.00214C1.11694 4.02655 0.818102 3.98228 0.605783 4.01042L0.610628 4.01018C0.451198 4.03136 0.15665 3.99762 0.0471546 4.03933ZM134.677 6.0298C134.683 6.02918 134.688 6.02865 134.693 6.02805C134.696 6.02896 134.699 6.02984 134.701 6.03075C134.693 6.03046 134.685 6.03011 134.677 6.02985C134.677 6.02985 134.677 6.02986 134.677 6.02986C134.677 6.02983 134.677 6.02982 134.677 6.0298ZM16.4862 5.13393C16.4791 5.13317 16.4722 5.13251 16.4652 5.13177C16.5259 5.13267 16.5861 5.13363 16.6506 5.13395C16.5941 5.13442 16.5397 5.13429 16.4862 5.13393ZM133.964 6.04176C133.968 6.04269 133.973 6.04362 133.977 6.04454C133.977 6.04452 133.964 6.04177 133.964 6.0418C133.96 6.04166 133.957 6.04153 133.953 6.04141C133.942 6.03716 133.931 6.03292 133.92 6.0287C133.936 6.03274 133.951 6.03704 133.964 6.04176ZM123.619 4.71947C123.626 4.72022 123.633 4.72089 123.64 4.72163C123.58 4.72073 123.519 4.71977 123.455 4.71945C123.511 4.71897 123.566 4.7191 123.619 4.71947ZM6.12819 3.80886C6.12834 3.80888 6.14148 3.81164 6.14148 3.8116C6.1451 3.81175 6.14865 3.81187 6.15235 3.812C6.16371 3.81625 6.17499 3.82049 6.18597 3.82471C6.16977 3.82064 6.15463 3.81635 6.14155 3.81162C6.13705 3.81071 6.13262 3.80979 6.12819 3.80886ZM5.42791 3.82355C5.42798 3.82355 5.42806 3.82354 5.42806 3.82354C5.42806 3.82355 5.42798 3.82357 5.42798 3.82358C5.42237 3.8242 5.41767 3.82473 5.41221 3.82534C5.40989 3.82443 5.40675 3.82354 5.40436 3.82263C5.41221 3.82294 5.42006 3.82329 5.42791 3.82355Z" fill="#F20083"/>
</svg>
